<svg width="33" height="32" viewBox="0 0 33 32" fill="none" xmlns="http://www.w3.org/2000/svg">
<path d="M20.5 16.5H12.5C12.2267 16.5 12 16.2733 12 16C12 15.7267 12.2267 15.5 12.5 15.5H20.5C20.7733 15.5 21 15.7267 21 16C21 16.2733 20.7733 16.5 20.5 16.5Z" fill="#E8E8DB"/>
<path d="M16.5 20.5C16.2267 20.5 16 20.2733 16 20V12C16 11.7267 16.2267 11.5 16.5 11.5C16.7733 11.5 17 11.7267 17 12V20C17 20.2733 16.7733 20.5 16.5 20.5Z" fill="#E8E8DB"/>
<rect x="1" y="0.5" width="31" height="31" rx="15.5" stroke="#E8E8DB" stroke-dasharray="2 2"/>
</svg>
