<svg width="21" height="20" viewBox="0 0 21 20" fill="none" xmlns="http://www.w3.org/2000/svg">
<path d="M7.73652 20.0002C4.75992 19.983 2.29773 13.9068 2.29773 10.8123C2.29773 5.75744 6.08973 4.6508 7.55113 4.6508C8.20972 4.6508 8.91297 4.90943 9.53324 5.1383C9.96699 5.29795 10.4156 5.46275 10.6651 5.46275C10.8144 5.46275 11.1663 5.32256 11.477 5.19955C12.1396 4.93576 12.9642 4.60791 13.9243 4.60791C13.9261 4.60791 13.9284 4.60791 13.93 4.60791C14.647 4.60791 16.8208 4.76525 18.1277 6.72791L18.4339 7.18795L17.9933 7.52041C17.3639 7.99533 16.2154 8.86166 16.2154 10.5777C16.2154 12.6102 17.5161 13.3918 18.1409 13.7677C18.4167 13.9337 18.7022 14.1048 18.7022 14.479C18.7022 14.7233 16.7521 19.9699 13.9203 19.9699C13.2274 19.9699 12.7376 19.7616 12.3055 19.5779C11.8684 19.3919 11.4913 19.2317 10.8682 19.2317C10.5523 19.2317 10.1529 19.3811 9.73004 19.5396C9.15219 19.7552 8.49812 20.0002 7.75597 20.0002H7.73652Z" fill="#0B0B0B"/>
<path d="M14.2243 0C14.2981 2.65922 12.3963 4.50406 10.4968 4.38836C10.1838 2.26621 12.3961 0 14.2243 0Z" fill="#0B0B0B"/>
</svg>
