<svg width="33" height="32" viewBox="0 0 33 32" fill="none" xmlns="http://www.w3.org/2000/svg">
<rect x="0.5" width="32" height="32" rx="16" fill="#E8E8DB" fill-opacity="0.21"/>
<path d="M18.6733 22.8332H14.3267C11.0533 22.8332 9.65332 21.4332 9.65332 18.1599V18.0732C9.65332 15.1132 10.82 13.6865 13.4333 13.4399C13.7 13.4199 13.9533 13.6199 13.98 13.8932C14.0067 14.1665 13.8067 14.4132 13.5267 14.4399C11.4333 14.6332 10.6533 15.6199 10.6533 18.0799V18.1665C10.6533 20.8799 11.6133 21.8399 14.3267 21.8399H18.6733C21.3867 21.8399 22.3467 20.8799 22.3467 18.1665V18.0799C22.3467 15.6065 21.5533 14.6199 19.42 14.4399C19.1467 14.4132 18.94 14.1732 18.9667 13.8999C18.9933 13.6265 19.2267 13.4199 19.5067 13.4465C22.16 13.6732 23.3467 15.1065 23.3467 18.0865V18.1732C23.3467 21.4332 21.9467 22.8332 18.6733 22.8332Z" fill="white"/>
<path d="M16.5 18.4202C16.2267 18.4202 16 18.1935 16 17.9202V9.3335C16 9.06016 16.2267 8.8335 16.5 8.8335C16.7733 8.8335 17 9.06016 17 9.3335V17.9202C17 18.2002 16.7733 18.4202 16.5 18.4202Z" fill="white"/>
<path d="M16.5 19.1667C16.3733 19.1667 16.2467 19.1201 16.1467 19.0201L13.9133 16.7867C13.72 16.5934 13.72 16.2734 13.9133 16.0801C14.1067 15.8867 14.4267 15.8867 14.62 16.0801L16.5 17.9601L18.38 16.0801C18.5733 15.8867 18.8933 15.8867 19.0867 16.0801C19.28 16.2734 19.28 16.5934 19.0867 16.7867L16.8533 19.0201C16.7533 19.1201 16.6267 19.1667 16.5 19.1667Z" fill="white"/>
</svg>
