<svg width="24" height="24" viewBox="0 0 24 24" fill="none" xmlns="http://www.w3.org/2000/svg">
<path d="M12 22.7501C6.79999 22.7501 2.57999 18.5201 2.57999 13.3301C2.57999 11.4601 3.12999 9.65014 4.16999 8.09014C4.39999 7.75014 4.86999 7.65014 5.20999 7.88014C5.54999 8.11014 5.64999 8.58014 5.41999 8.92014C4.54999 10.2201 4.08999 11.7501 4.08999 13.3201C4.08999 17.6901 7.63999 21.2401 12.01 21.2401C16.38 21.2401 19.93 17.6901 19.93 13.3201C19.93 8.95014 16.37 5.40014 12 5.40014C11.08 5.40014 10.18 5.53014 9.32999 5.79014C8.92999 5.91014 8.50999 5.69014 8.38999 5.29014C8.26999 4.89014 8.48999 4.47014 8.88999 4.35014C9.88999 4.05014 10.93 3.89014 12 3.89014C17.2 3.89014 21.42 8.12014 21.42 13.3101C21.42 18.5001 17.2 22.7501 12 22.7501Z" fill="#E8E8DB"/>
<path d="M7.86999 6.07012C7.69999 6.07012 7.51999 6.01012 7.37999 5.89012C7.05999 5.61012 7.02999 5.14012 7.29999 4.83012L10.19 1.51012C10.46 1.20012 10.94 1.16012 11.25 1.44012C11.56 1.71012 11.59 2.19012 11.32 2.50012L8.42999 5.81012C8.27999 5.98012 8.06999 6.07012 7.86999 6.07012Z" fill="#E8E8DB"/>
<path d="M11.24 8.53013C11.09 8.53013 10.93 8.48013 10.8 8.39013L7.42001 5.92013C7.09001 5.68013 7.02001 5.21013 7.26001 4.88013C7.50001 4.54013 7.97001 4.47013 8.31001 4.71013L11.68 7.17013C12.01 7.41013 12.09 7.88013 11.84 8.22013C11.7 8.43013 11.47 8.53013 11.24 8.53013Z" fill="#E8E8DB"/>
</svg>
