<svg width="33" height="32" viewBox="0 0 33 32" fill="none" xmlns="http://www.w3.org/2000/svg">
<rect x="0.5" width="32" height="32" rx="16" fill="#E8E8DB" fill-opacity="0.21"/>
<path d="M20.8382 18.7623C20.0716 18.7623 19.381 19.0934 18.9016 19.62L14.59 16.9496C14.7051 16.6549 14.7689 16.3348 14.7689 16C14.7689 15.665 14.7051 15.345 14.59 15.0504L18.9016 12.3799C19.381 12.9065 20.0716 13.2377 20.8382 13.2377C22.2823 13.2377 23.4571 12.0629 23.4571 10.6188C23.4571 9.17468 22.2823 8 20.8382 8C19.3941 8 18.2193 9.1748 18.2193 10.6189C18.2193 10.9537 18.2833 11.2738 18.3983 11.5685L14.0868 14.2389C13.6074 13.7123 12.9167 13.3811 12.1501 13.3811C10.7061 13.3811 9.53125 14.556 9.53125 16C9.53125 17.4441 10.7061 18.6189 12.1501 18.6189C12.9167 18.6189 13.6074 18.2878 14.0868 17.7611L18.3983 20.4315C18.2833 20.7262 18.2193 21.0462 18.2193 21.3812C18.2193 22.8252 19.3941 24 20.8382 24C22.2823 24 23.4571 22.8252 23.4571 21.3812C23.4571 19.9371 22.2823 18.7623 20.8382 18.7623ZM19.1743 10.6189C19.1743 9.70141 19.9208 8.95495 20.8382 8.95495C21.7557 8.95495 22.5022 9.70141 22.5022 10.6189C22.5022 11.5364 21.7557 12.2828 20.8382 12.2828C19.9208 12.2828 19.1743 11.5364 19.1743 10.6189ZM12.1501 17.6639C11.2325 17.6639 10.4861 16.9175 10.4861 16C10.4861 15.0825 11.2325 14.336 12.1501 14.336C13.0676 14.336 13.814 15.0825 13.814 16C13.814 16.9175 13.0676 17.6639 12.1501 17.6639ZM19.1743 21.3811C19.1743 20.4636 19.9208 19.7171 20.8382 19.7171C21.7557 19.7171 22.5022 20.4636 22.5022 21.3811C22.5022 22.2986 21.7557 23.045 20.8382 23.045C19.9208 23.045 19.1743 22.2986 19.1743 21.3811Z" fill="#E8E8DB"/>
</svg>
