<svg width="33" height="33" viewBox="0 0 33 33" fill="none" xmlns="http://www.w3.org/2000/svg">
<path d="M12.8906 18.5625L13.4062 24.75L19.5938 25.2656L13.4062 25.7812L12.8906 31.9688L12.375 25.7812L6.1875 25.2656L12.375 24.75L12.8906 18.5625Z" fill="#BDBDBD"/>
<path d="M23.7188 4.64062L24.2344 10.8281L30.4219 11.3438L24.2344 11.8594L23.7188 18.0469L23.2031 11.8594L17.0156 11.3438L23.2031 10.8281L23.7188 4.64062Z" fill="#BDBDBD"/>
<path d="M5.15625 12.375L5.67188 16.5L9.79688 17.0156L5.67188 17.5312L5.15625 21.6562L4.64062 17.5312L0.515625 17.0156L4.64062 16.5L5.15625 12.375Z" fill="#BDBDBD"/>
<path d="M12.375 1.03125L12.8906 5.15625L17.0156 5.67188L12.8906 6.1875L12.375 10.3125L11.8594 6.1875L7.73438 5.67188L11.8594 5.15625L12.375 1.03125Z" fill="#BDBDBD"/>
<path d="M27.8438 18.0469L28.3594 22.1719L32.4844 22.6875L28.3594 23.2031L27.8438 27.3281L27.3281 23.2031L23.2031 22.6875L27.3281 22.1719L27.8438 18.0469Z" fill="#BDBDBD"/>
</svg>
